<svg width="133" height="23" viewBox="0 0 133 23" fill="none" xmlns="http://www.w3.org/2000/svg">
<path d="M1.01994 8.34728C1.71489 9.55097 3.39993 10.1443 4.57256 9.46728C5.79796 8.7598 5.9983 7.10144 6.49503 6.2722C6.99176 5.44297 7.87785 5.11863 8.68757 5.00634C9.49728 4.89406 11.1485 5.67082 12.4158 4.939C13.6072 4.25106 13.9762 2.60829 13.2812 1.40461C12.5863 0.200919 10.9013 -0.392412 9.72862 0.284606C8.50323 0.992087 8.30288 2.65045 7.80615 3.47969C7.30942 4.30892 6.67681 4.83741 5.65457 4.87591C4.63234 4.91441 3.15267 4.08107 1.88535 4.81289C0.694001 5.50083 0.324988 7.1436 1.01994 8.34728Z" fill="#013BDB"/>
<path d="M1.01994 8.34728C1.71489 9.55097 3.39993 10.1443 4.57256 9.46728C5.79796 8.7598 5.9983 7.10144 6.49503 6.2722C6.99176 5.44297 7.87785 5.11863 8.68757 5.00634C9.49728 4.89406 11.1485 5.67082 12.4158 4.939C13.6072 4.25106 13.9762 2.60829 13.2812 1.40461C12.5863 0.200919 10.9013 -0.392412 9.72862 0.284606C8.50323 0.992087 8.30288 2.65045 7.80615 3.47969C7.30942 4.30892 6.67681 4.83741 5.65457 4.87591C4.63234 4.91441 3.15267 4.08107 1.88535 4.81289C0.694001 5.50083 0.324988 7.1436 1.01994 8.34728Z" fill="url(#paint0_linear_113_33)" fill-opacity="0.44" style="mix-blend-mode:plus-lighter"/>
<path d="M13.2817 20.0468C12.5867 21.2505 10.9017 21.8438 9.72903 21.1668C8.50363 20.4593 8.30329 18.801 7.80656 17.9717C7.30982 17.1425 6.42373 16.8181 5.61402 16.7059C4.80431 16.5936 3.15307 17.3703 1.88575 16.6385C0.694406 15.9506 0.325394 14.3078 1.02034 13.1041C1.71529 11.9004 3.40034 11.3071 4.57297 11.9841C5.79836 12.6916 5.99871 14.35 6.49544 15.1792C6.99217 16.0084 7.62478 16.5369 8.64702 16.5754C9.66925 16.6139 11.1489 15.7806 12.4162 16.5124C13.6076 17.2003 13.9766 18.8431 13.2817 20.0468Z" fill="#013BDB"/>
<path d="M13.2817 20.0468C12.5867 21.2505 10.9017 21.8438 9.72903 21.1668C8.50363 20.4593 8.30329 18.801 7.80656 17.9717C7.30982 17.1425 6.42373 16.8181 5.61402 16.7059C4.80431 16.5936 3.15307 17.3703 1.88575 16.6385C0.694406 15.9506 0.325394 14.3078 1.02034 13.1041C1.71529 11.9004 3.40034 11.3071 4.57297 11.9841C5.79836 12.6916 5.99871 14.35 6.49544 15.1792C6.99217 16.0084 7.62478 16.5369 8.64702 16.5754C9.66925 16.6139 11.1489 15.7806 12.4162 16.5124C13.6076 17.2003 13.9766 18.8431 13.2817 20.0468Z" fill="url(#paint1_linear_113_33)" fill-opacity="0.44" style="mix-blend-mode:plus-lighter"/>
<path d="M17.4834 18.2179C18.8733 18.2179 20.2297 17.0552 20.2297 15.7012C20.2297 14.2862 18.8937 13.2835 18.4239 12.4387C17.9541 11.5939 18.1163 10.6644 18.4239 9.90703C18.7315 9.14965 20.2299 8.10802 20.2297 6.64458C20.2296 5.26887 18.9915 4.12791 17.6016 4.12791C16.2117 4.12791 14.8553 5.29054 14.8553 6.64458C14.8553 8.05954 16.1913 9.06223 16.6611 9.90703C17.1309 10.7518 17.2722 11.5639 16.7945 12.4685C16.3167 13.373 14.8552 14.2378 14.8553 15.7012C14.8554 17.0769 16.0935 18.2179 17.4834 18.2179Z" fill="#013BDB"/>
<path d="M17.4834 18.2179C18.8733 18.2179 20.2297 17.0552 20.2297 15.7012C20.2297 14.2862 18.8937 13.2835 18.4239 12.4387C17.9541 11.5939 18.1163 10.6644 18.4239 9.90703C18.7315 9.14965 20.2299 8.10802 20.2297 6.64458C20.2296 5.26887 18.9915 4.12791 17.6016 4.12791C16.2117 4.12791 14.8553 5.29054 14.8553 6.64458C14.8553 8.05954 16.1913 9.06223 16.6611 9.90703C17.1309 10.7518 17.2722 11.5639 16.7945 12.4685C16.3167 13.373 14.8552 14.2378 14.8553 15.7012C14.8554 17.0769 16.0935 18.2179 17.4834 18.2179Z" fill="url(#paint2_linear_113_33)" fill-opacity="0.44" style="mix-blend-mode:plus-lighter"/>
<path d="M126.796 18.6114C125.765 18.6114 124.857 18.3566 124.074 17.8471C123.304 17.3375 122.763 16.654 122.453 15.7965L124.074 15.0322C124.348 15.6039 124.721 16.0575 125.193 16.393C125.678 16.7286 126.212 16.8964 126.796 16.8964C127.293 16.8964 127.697 16.7845 128.008 16.5608C128.319 16.3371 128.474 16.0326 128.474 15.6474C128.474 15.3988 128.406 15.2 128.269 15.0508C128.132 14.8893 127.958 14.7588 127.747 14.6593C127.548 14.5599 127.343 14.4854 127.132 14.4356L125.547 13.9882C124.677 13.7397 124.025 13.3669 123.59 12.8697C123.167 12.3602 122.956 11.7699 122.956 11.0988C122.956 10.4898 123.111 9.96164 123.422 9.51424C123.733 9.05442 124.161 8.70022 124.708 8.45167C125.255 8.20311 125.87 8.07883 126.554 8.07883C127.473 8.07883 128.294 8.30875 129.014 8.76858C129.735 9.21598 130.245 9.84358 130.543 10.6514L128.921 11.4157C128.722 10.931 128.406 10.5458 127.971 10.2599C127.548 9.97407 127.07 9.83115 126.535 9.83115C126.075 9.83115 125.709 9.943 125.435 10.1667C125.162 10.378 125.025 10.6576 125.025 11.0056C125.025 11.2417 125.087 11.4406 125.212 11.6021C125.336 11.7512 125.497 11.8755 125.696 11.9749C125.895 12.0619 126.1 12.1365 126.311 12.1986L127.952 12.6833C128.785 12.9195 129.425 13.2923 129.872 13.8018C130.319 14.2989 130.543 14.8955 130.543 15.5914C130.543 16.188 130.382 16.7161 130.058 17.176C129.748 17.6234 129.313 17.9776 128.753 18.2386C128.194 18.4871 127.542 18.6114 126.796 18.6114Z" fill="#013BDB"/>
<path d="M126.796 18.6114C125.765 18.6114 124.857 18.3566 124.074 17.8471C123.304 17.3375 122.763 16.654 122.453 15.7965L124.074 15.0322C124.348 15.6039 124.721 16.0575 125.193 16.393C125.678 16.7286 126.212 16.8964 126.796 16.8964C127.293 16.8964 127.697 16.7845 128.008 16.5608C128.319 16.3371 128.474 16.0326 128.474 15.6474C128.474 15.3988 128.406 15.2 128.269 15.0508C128.132 14.8893 127.958 14.7588 127.747 14.6593C127.548 14.5599 127.343 14.4854 127.132 14.4356L125.547 13.9882C124.677 13.7397 124.025 13.3669 123.59 12.8697C123.167 12.3602 122.956 11.7699 122.956 11.0988C122.956 10.4898 123.111 9.96164 123.422 9.51424C123.733 9.05442 124.161 8.70022 124.708 8.45167C125.255 8.20311 125.87 8.07883 126.554 8.07883C127.473 8.07883 128.294 8.30875 129.014 8.76858C129.735 9.21598 130.245 9.84358 130.543 10.6514L128.921 11.4157C128.722 10.931 128.406 10.5458 127.971 10.2599C127.548 9.97407 127.07 9.83115 126.535 9.83115C126.075 9.83115 125.709 9.943 125.435 10.1667C125.162 10.378 125.025 10.6576 125.025 11.0056C125.025 11.2417 125.087 11.4406 125.212 11.6021C125.336 11.7512 125.497 11.8755 125.696 11.9749C125.895 12.0619 126.1 12.1365 126.311 12.1986L127.952 12.6833C128.785 12.9195 129.425 13.2923 129.872 13.8018C130.319 14.2989 130.543 14.8955 130.543 15.5914C130.543 16.188 130.382 16.7161 130.058 17.176C129.748 17.6234 129.313 17.9776 128.753 18.2386C128.194 18.4871 127.542 18.6114 126.796 18.6114Z" fill="url(#paint3_linear_113_33)" fill-opacity="0.44" style="mix-blend-mode:plus-lighter"/>
<path d="M117.085 18.6109C116.303 18.6109 115.588 18.4493 114.942 18.1262C114.308 17.8031 113.817 17.3371 113.469 16.7281L113.711 16.3366V18.3872H111.698V4.27545H113.805V10.3899L113.469 9.90524C113.842 9.33356 114.339 8.88616 114.96 8.56304C115.582 8.23992 116.29 8.07836 117.085 8.07836C118.042 8.07836 118.9 8.30827 119.658 8.7681C120.429 9.22793 121.031 9.85553 121.466 10.6509C121.914 11.4463 122.137 12.3411 122.137 13.3353C122.137 14.3295 121.914 15.2243 121.466 16.0197C121.031 16.8151 120.435 17.4489 119.677 17.9212C118.919 18.381 118.055 18.6109 117.085 18.6109ZM116.88 16.6535C117.477 16.6535 118.005 16.5106 118.465 16.2248C118.925 15.9389 119.285 15.5475 119.546 15.0503C119.82 14.5408 119.956 13.9691 119.956 13.3353C119.956 12.7015 119.82 12.136 119.546 11.6389C119.285 11.1418 118.925 10.7503 118.465 10.4645C118.005 10.1787 117.477 10.0357 116.88 10.0357C116.296 10.0357 115.768 10.1787 115.296 10.4645C114.836 10.7503 114.469 11.1418 114.196 11.6389C113.935 12.136 113.805 12.7015 113.805 13.3353C113.805 13.9691 113.935 14.5408 114.196 15.0503C114.469 15.5475 114.836 15.9389 115.296 16.2248C115.768 16.5106 116.296 16.6535 116.88 16.6535Z" fill="#013BDB"/>
<path d="M117.085 18.6109C116.303 18.6109 115.588 18.4493 114.942 18.1262C114.308 17.8031 113.817 17.3371 113.469 16.7281L113.711 16.3366V18.3872H111.698V4.27545H113.805V10.3899L113.469 9.90524C113.842 9.33356 114.339 8.88616 114.96 8.56304C115.582 8.23992 116.29 8.07836 117.085 8.07836C118.042 8.07836 118.9 8.30827 119.658 8.7681C120.429 9.22793 121.031 9.85553 121.466 10.6509C121.914 11.4463 122.137 12.3411 122.137 13.3353C122.137 14.3295 121.914 15.2243 121.466 16.0197C121.031 16.8151 120.435 17.4489 119.677 17.9212C118.919 18.381 118.055 18.6109 117.085 18.6109ZM116.88 16.6535C117.477 16.6535 118.005 16.5106 118.465 16.2248C118.925 15.9389 119.285 15.5475 119.546 15.0503C119.82 14.5408 119.956 13.9691 119.956 13.3353C119.956 12.7015 119.82 12.136 119.546 11.6389C119.285 11.1418 118.925 10.7503 118.465 10.4645C118.005 10.1787 117.477 10.0357 116.88 10.0357C116.296 10.0357 115.768 10.1787 115.296 10.4645C114.836 10.7503 114.469 11.1418 114.196 11.6389C113.935 12.136 113.805 12.7015 113.805 13.3353C113.805 13.9691 113.935 14.5408 114.196 15.0503C114.469 15.5475 114.836 15.9389 115.296 16.2248C115.768 16.5106 116.296 16.6535 116.88 16.6535Z" fill="url(#paint4_linear_113_33)" fill-opacity="0.44" style="mix-blend-mode:plus-lighter"/>
<path d="M105.059 18.6114C104.376 18.6114 103.773 18.4933 103.251 18.2572C102.741 18.0086 102.344 17.6731 102.058 17.2505C101.772 16.8156 101.629 16.306 101.629 15.7219C101.629 15.1751 101.747 14.6842 101.983 14.2492C102.232 13.8143 102.611 13.4476 103.12 13.1494C103.63 12.8511 104.27 12.6398 105.04 12.5156L108.545 11.9377V13.5968L105.451 14.1374C104.891 14.2368 104.481 14.417 104.22 14.678C103.959 14.9265 103.829 15.2497 103.829 15.6474C103.829 16.0326 103.972 16.3495 104.257 16.5981C104.556 16.8342 104.935 16.9523 105.395 16.9523C105.966 16.9523 106.463 16.828 106.886 16.5794C107.321 16.3309 107.656 16.0016 107.893 15.5914C108.129 15.1689 108.247 14.7028 108.247 14.1933V11.6021C108.247 11.105 108.06 10.7011 107.688 10.3904C107.327 10.0673 106.842 9.90572 106.233 9.90572C105.674 9.90572 105.183 10.0549 104.761 10.3531C104.351 10.639 104.046 11.0118 103.847 11.4716L102.095 10.5955C102.281 10.0984 102.586 9.66338 103.008 9.29054C103.431 8.90528 103.922 8.60702 104.481 8.39574C105.053 8.18447 105.656 8.07883 106.289 8.07883C107.085 8.07883 107.787 8.22797 108.396 8.52623C109.017 8.8245 109.496 9.24083 109.831 9.77523C110.179 10.2972 110.353 10.9062 110.353 11.6021V18.3877H108.34V16.5608L108.769 16.6167C108.533 17.0268 108.228 17.381 107.855 17.6793C107.495 17.9776 107.079 18.2075 106.606 18.369C106.147 18.5306 105.631 18.6114 105.059 18.6114Z" fill="#013BDB"/>
<path d="M105.059 18.6114C104.376 18.6114 103.773 18.4933 103.251 18.2572C102.741 18.0086 102.344 17.6731 102.058 17.2505C101.772 16.8156 101.629 16.306 101.629 15.7219C101.629 15.1751 101.747 14.6842 101.983 14.2492C102.232 13.8143 102.611 13.4476 103.12 13.1494C103.63 12.8511 104.27 12.6398 105.04 12.5156L108.545 11.9377V13.5968L105.451 14.1374C104.891 14.2368 104.481 14.417 104.22 14.678C103.959 14.9265 103.829 15.2497 103.829 15.6474C103.829 16.0326 103.972 16.3495 104.257 16.5981C104.556 16.8342 104.935 16.9523 105.395 16.9523C105.966 16.9523 106.463 16.828 106.886 16.5794C107.321 16.3309 107.656 16.0016 107.893 15.5914C108.129 15.1689 108.247 14.7028 108.247 14.1933V11.6021C108.247 11.105 108.06 10.7011 107.688 10.3904C107.327 10.0673 106.842 9.90572 106.233 9.90572C105.674 9.90572 105.183 10.0549 104.761 10.3531C104.351 10.639 104.046 11.0118 103.847 11.4716L102.095 10.5955C102.281 10.0984 102.586 9.66338 103.008 9.29054C103.431 8.90528 103.922 8.60702 104.481 8.39574C105.053 8.18447 105.656 8.07883 106.289 8.07883C107.085 8.07883 107.787 8.22797 108.396 8.52623C109.017 8.8245 109.496 9.24083 109.831 9.77523C110.179 10.2972 110.353 10.9062 110.353 11.6021V18.3877H108.34V16.5608L108.769 16.6167C108.533 17.0268 108.228 17.381 107.855 17.6793C107.495 17.9776 107.079 18.2075 106.606 18.369C106.147 18.5306 105.631 18.6114 105.059 18.6114Z" fill="url(#paint5_linear_113_33)" fill-opacity="0.44" style="mix-blend-mode:plus-lighter"/>
<path d="M92.1948 18.3875V4.49941H94.3945V16.4301H100.397V18.3875H92.1948Z" fill="#013BDB"/>
<path d="M92.1948 18.3875V4.49941H94.3945V16.4301H100.397V18.3875H92.1948Z" fill="url(#paint6_linear_113_33)" fill-opacity="0.44" style="mix-blend-mode:plus-lighter"/>
<path d="M82.5361 18.6114C81.5667 18.6114 80.6782 18.3815 79.8704 17.9216C79.075 17.4618 78.4412 16.8342 77.9689 16.0388C77.4966 15.2435 77.2605 14.3424 77.2605 13.3358C77.2605 12.3167 77.4966 11.4157 77.9689 10.6327C78.4412 9.83737 79.075 9.21598 79.8704 8.76858C80.6657 8.30875 81.5543 8.07883 82.5361 8.07883C83.5303 8.07883 84.4189 8.30875 85.2019 8.76858C85.9973 9.21598 86.6249 9.83737 87.0847 10.6327C87.5569 11.4157 87.7931 12.3167 87.7931 13.3358C87.7931 14.3549 87.5569 15.2621 87.0847 16.0575C86.6124 16.8529 85.9786 17.4805 85.1832 17.9403C84.3879 18.3877 83.5055 18.6114 82.5361 18.6114ZM82.5361 16.654C83.1326 16.654 83.6608 16.5111 84.1207 16.2253C84.5805 15.9394 84.9409 15.5479 85.2019 15.0508C85.4753 14.5413 85.612 13.9696 85.612 13.3358C85.612 12.702 85.4753 12.1365 85.2019 11.6394C84.9409 11.1423 84.5805 10.7508 84.1207 10.465C83.6608 10.1791 83.1326 10.0362 82.5361 10.0362C81.952 10.0362 81.4238 10.1791 80.9516 10.465C80.4917 10.7508 80.1251 11.1423 79.8517 11.6394C79.5907 12.1365 79.4602 12.702 79.4602 13.3358C79.4602 13.9696 79.5907 14.5413 79.8517 15.0508C80.1251 15.5479 80.4917 15.9394 80.9516 16.2253C81.4238 16.5111 81.952 16.654 82.5361 16.654Z" fill="#013BDB"/>
<path d="M82.5361 18.6114C81.5667 18.6114 80.6782 18.3815 79.8704 17.9216C79.075 17.4618 78.4412 16.8342 77.9689 16.0388C77.4966 15.2435 77.2605 14.3424 77.2605 13.3358C77.2605 12.3167 77.4966 11.4157 77.9689 10.6327C78.4412 9.83737 79.075 9.21598 79.8704 8.76858C80.6657 8.30875 81.5543 8.07883 82.5361 8.07883C83.5303 8.07883 84.4189 8.30875 85.2019 8.76858C85.9973 9.21598 86.6249 9.83737 87.0847 10.6327C87.5569 11.4157 87.7931 12.3167 87.7931 13.3358C87.7931 14.3549 87.5569 15.2621 87.0847 16.0575C86.6124 16.8529 85.9786 17.4805 85.1832 17.9403C84.3879 18.3877 83.5055 18.6114 82.5361 18.6114ZM82.5361 16.654C83.1326 16.654 83.6608 16.5111 84.1207 16.2253C84.5805 15.9394 84.9409 15.5479 85.2019 15.0508C85.4753 14.5413 85.612 13.9696 85.612 13.3358C85.612 12.702 85.4753 12.1365 85.2019 11.6394C84.9409 11.1423 84.5805 10.7508 84.1207 10.465C83.6608 10.1791 83.1326 10.0362 82.5361 10.0362C81.952 10.0362 81.4238 10.1791 80.9516 10.465C80.4917 10.7508 80.1251 11.1423 79.8517 11.6394C79.5907 12.1365 79.4602 12.702 79.4602 13.3358C79.4602 13.9696 79.5907 14.5413 79.8517 15.0508C80.1251 15.5479 80.4917 15.9394 80.9516 16.2253C81.4238 16.5111 81.952 16.654 82.5361 16.654Z" fill="url(#paint7_linear_113_33)" fill-opacity="0.44" style="mix-blend-mode:plus-lighter"/>
<path d="M74.2202 18.3875V8.30232H76.3267V18.3875H74.2202ZM74.2202 6.92283V4.49941H76.3267V6.92283H74.2202Z" fill="#013BDB"/>
<path d="M74.2202 18.3875V8.30232H76.3267V18.3875H74.2202ZM74.2202 6.92283V4.49941H76.3267V6.92283H74.2202Z" fill="url(#paint8_linear_113_33)" fill-opacity="0.44" style="mix-blend-mode:plus-lighter"/>
<path d="M64.4155 18.3872V4.27545H66.522V10.2781L66.1864 10.0171C66.435 9.38327 66.8327 8.9048 67.3795 8.58168C67.9263 8.24613 68.5601 8.07836 69.281 8.07836C70.0266 8.07836 70.6853 8.23992 71.257 8.56304C71.8286 8.88616 72.2761 9.33356 72.5992 9.90524C72.9223 10.4769 73.0839 11.1294 73.0839 11.8626V18.3872H70.996V12.4405C70.996 11.931 70.8966 11.5022 70.6977 11.1542C70.5113 10.7938 70.2503 10.5204 69.9148 10.334C69.5792 10.1352 69.194 10.0357 68.759 10.0357C68.3364 10.0357 67.9512 10.1352 67.6032 10.334C67.2677 10.5204 67.0005 10.7938 66.8016 11.1542C66.6152 11.5146 66.522 11.9434 66.522 12.4405V18.3872H64.4155Z" fill="#013BDB"/>
<path d="M64.4155 18.3872V4.27545H66.522V10.2781L66.1864 10.0171C66.435 9.38327 66.8327 8.9048 67.3795 8.58168C67.9263 8.24613 68.5601 8.07836 69.281 8.07836C70.0266 8.07836 70.6853 8.23992 71.257 8.56304C71.8286 8.88616 72.2761 9.33356 72.5992 9.90524C72.9223 10.4769 73.0839 11.1294 73.0839 11.8626V18.3872H70.996V12.4405C70.996 11.931 70.8966 11.5022 70.6977 11.1542C70.5113 10.7938 70.2503 10.5204 69.9148 10.334C69.5792 10.1352 69.194 10.0357 68.759 10.0357C68.3364 10.0357 67.9512 10.1352 67.6032 10.334C67.2677 10.5204 67.0005 10.7938 66.8016 11.1542C66.6152 11.5146 66.522 11.9434 66.522 12.4405V18.3872H64.4155Z" fill="url(#paint9_linear_113_33)" fill-opacity="0.44" style="mix-blend-mode:plus-lighter"/>
<path d="M62.341 18.4995C61.2846 18.4995 60.4644 18.2012 59.8803 17.6047C59.2962 17.0082 59.0041 16.1693 59.0041 15.0881V10.204H57.2332V8.30251H57.5128C57.9851 8.30251 58.3517 8.16581 58.6127 7.8924C58.8736 7.61898 59.0041 7.24615 59.0041 6.77389V5.99094H61.1106V8.30251H63.4036V10.204H61.1106V14.9949C61.1106 15.3429 61.1666 15.6411 61.2784 15.8897C61.3903 16.1258 61.5705 16.3122 61.819 16.4489C62.0676 16.5732 62.3907 16.6353 62.7884 16.6353C62.8878 16.6353 62.9997 16.6291 63.124 16.6167C63.2482 16.6043 63.3663 16.5918 63.4781 16.5794V18.3877C63.3042 18.4125 63.1115 18.4374 62.9003 18.4622C62.689 18.4871 62.5026 18.4995 62.341 18.4995Z" fill="#013BDB"/>
<path d="M62.341 18.4995C61.2846 18.4995 60.4644 18.2012 59.8803 17.6047C59.2962 17.0082 59.0041 16.1693 59.0041 15.0881V10.204H57.2332V8.30251H57.5128C57.9851 8.30251 58.3517 8.16581 58.6127 7.8924C58.8736 7.61898 59.0041 7.24615 59.0041 6.77389V5.99094H61.1106V8.30251H63.4036V10.204H61.1106V14.9949C61.1106 15.3429 61.1666 15.6411 61.2784 15.8897C61.3903 16.1258 61.5705 16.3122 61.819 16.4489C62.0676 16.5732 62.3907 16.6353 62.7884 16.6353C62.8878 16.6353 62.9997 16.6291 63.124 16.6167C63.2482 16.6043 63.3663 16.5918 63.4781 16.5794V18.3877C63.3042 18.4125 63.1115 18.4374 62.9003 18.4622C62.689 18.4871 62.5026 18.4995 62.341 18.4995Z" fill="url(#paint10_linear_113_33)" fill-opacity="0.44" style="mix-blend-mode:plus-lighter"/>
<path d="M48.1746 18.3877V8.30254H50.1879V10.2786L49.9455 10.0176C50.1941 9.38375 50.5918 8.90528 51.1386 8.58216C51.6854 8.24661 52.3193 8.07883 53.0401 8.07883C53.7857 8.07883 54.4444 8.2404 55.0161 8.56352C55.5878 8.88664 56.0352 9.33404 56.3583 9.90572C56.6814 10.4774 56.843 11.1361 56.843 11.8817V18.3877H54.7551V12.441C54.7551 11.9314 54.6619 11.5027 54.4755 11.1547C54.2891 10.7943 54.0219 10.5209 53.6739 10.3345C53.3383 10.1356 52.9531 10.0362 52.5181 10.0362C52.0831 10.0362 51.6916 10.1356 51.3437 10.3345C51.0081 10.5209 50.7471 10.7943 50.5607 11.1547C50.3743 11.5151 50.2811 11.9439 50.2811 12.441V18.3877H48.1746Z" fill="#013BDB"/>
<path d="M48.1746 18.3877V8.30254H50.1879V10.2786L49.9455 10.0176C50.1941 9.38375 50.5918 8.90528 51.1386 8.58216C51.6854 8.24661 52.3193 8.07883 53.0401 8.07883C53.7857 8.07883 54.4444 8.2404 55.0161 8.56352C55.5878 8.88664 56.0352 9.33404 56.3583 9.90572C56.6814 10.4774 56.843 11.1361 56.843 11.8817V18.3877H54.7551V12.441C54.7551 11.9314 54.6619 11.5027 54.4755 11.1547C54.2891 10.7943 54.0219 10.5209 53.6739 10.3345C53.3383 10.1356 52.9531 10.0362 52.5181 10.0362C52.0831 10.0362 51.6916 10.1356 51.3437 10.3345C51.0081 10.5209 50.7471 10.7943 50.5607 11.1547C50.3743 11.5151 50.2811 11.9439 50.2811 12.441V18.3877H48.1746Z" fill="url(#paint11_linear_113_33)" fill-opacity="0.44" style="mix-blend-mode:plus-lighter"/>
<path d="M39.5745 22.4885C39.3259 22.4885 39.0774 22.4636 38.8288 22.4139C38.5927 22.3766 38.3752 22.3145 38.1764 22.2275V20.4192C38.3255 20.4565 38.5057 20.4876 38.717 20.5125C38.9283 20.5497 39.1333 20.5684 39.3322 20.5684C39.9163 20.5684 40.345 20.4379 40.6184 20.1769C40.9043 19.9283 41.159 19.5431 41.3827 19.0211L42.0538 17.4925L42.0166 19.2635L37.6544 8.30215H39.91L43.1351 16.7095H42.3707L45.5771 8.30215H47.8514L43.396 19.4872C43.1599 20.0837 42.8616 20.6057 42.5012 21.0531C42.1533 21.5129 41.7369 21.8671 41.2522 22.1156C40.78 22.3642 40.2207 22.4885 39.5745 22.4885Z" fill="#013BDB"/>
<path d="M39.5745 22.4885C39.3259 22.4885 39.0774 22.4636 38.8288 22.4139C38.5927 22.3766 38.3752 22.3145 38.1764 22.2275V20.4192C38.3255 20.4565 38.5057 20.4876 38.717 20.5125C38.9283 20.5497 39.1333 20.5684 39.3322 20.5684C39.9163 20.5684 40.345 20.4379 40.6184 20.1769C40.9043 19.9283 41.159 19.5431 41.3827 19.0211L42.0538 17.4925L42.0166 19.2635L37.6544 8.30215H39.91L43.1351 16.7095H42.3707L45.5771 8.30215H47.8514L43.396 19.4872C43.1599 20.0837 42.8616 20.6057 42.5012 21.0531C42.1533 21.5129 41.7369 21.8671 41.2522 22.1156C40.78 22.3642 40.2207 22.4885 39.5745 22.4885Z" fill="url(#paint12_linear_113_33)" fill-opacity="0.44" style="mix-blend-mode:plus-lighter"/>
<path d="M32.7991 18.6109C31.9292 18.6109 31.1214 18.4493 30.3757 18.1262C29.63 17.7907 28.9962 17.3371 28.4743 16.7654C27.9523 16.1937 27.567 15.535 27.3185 14.7894L29.1826 14.0064C29.5182 14.8639 30.0091 15.5226 30.6553 15.9824C31.3016 16.4423 32.0472 16.6722 32.8923 16.6722C33.3894 16.6722 33.8244 16.5976 34.1972 16.4485C34.5701 16.2869 34.8559 16.0632 35.0548 15.7774C35.266 15.4915 35.3717 15.1622 35.3717 14.7894C35.3717 14.2798 35.2288 13.8759 34.9429 13.5777C34.6571 13.2794 34.2345 13.0433 33.6753 12.8693L31.0654 12.049C30.0215 11.7259 29.2261 11.235 28.6793 10.5763C28.1325 9.90524 27.8591 9.12229 27.8591 8.22749C27.8591 7.44454 28.0517 6.76101 28.437 6.1769C28.8222 5.58037 29.3504 5.11433 30.0215 4.77878C30.705 4.44323 31.4818 4.27545 32.3517 4.27545C33.1844 4.27545 33.9425 4.42459 34.626 4.72285C35.3095 5.00869 35.8936 5.40638 36.3783 5.91592C36.8754 6.42546 37.2358 7.01578 37.4595 7.68688L35.6327 8.48847C35.3592 7.75523 34.9305 7.18977 34.3464 6.79208C33.7747 6.39439 33.1098 6.19554 32.3517 6.19554C31.8919 6.19554 31.488 6.27633 31.14 6.43789C30.792 6.58702 30.5186 6.81072 30.3198 7.10899C30.1334 7.39483 30.0402 7.73038 30.0402 8.11564C30.0402 8.56304 30.1831 8.96073 30.4689 9.30871C30.7548 9.65668 31.1897 9.91767 31.7738 10.0917L34.1972 10.856C35.3033 11.1915 36.136 11.6762 36.6952 12.31C37.2545 12.9314 37.5341 13.7081 37.5341 14.6402C37.5341 15.4108 37.3291 16.0943 36.9189 16.6908C36.5212 17.2873 35.9682 17.7596 35.2598 18.1076C34.5514 18.4431 33.7312 18.6109 32.7991 18.6109Z" fill="#013BDB"/>
<path d="M32.7991 18.6109C31.9292 18.6109 31.1214 18.4493 30.3757 18.1262C29.63 17.7907 28.9962 17.3371 28.4743 16.7654C27.9523 16.1937 27.567 15.535 27.3185 14.7894L29.1826 14.0064C29.5182 14.8639 30.0091 15.5226 30.6553 15.9824C31.3016 16.4423 32.0472 16.6722 32.8923 16.6722C33.3894 16.6722 33.8244 16.5976 34.1972 16.4485C34.5701 16.2869 34.8559 16.0632 35.0548 15.7774C35.266 15.4915 35.3717 15.1622 35.3717 14.7894C35.3717 14.2798 35.2288 13.8759 34.9429 13.5777C34.6571 13.2794 34.2345 13.0433 33.6753 12.8693L31.0654 12.049C30.0215 11.7259 29.2261 11.235 28.6793 10.5763C28.1325 9.90524 27.8591 9.12229 27.8591 8.22749C27.8591 7.44454 28.0517 6.76101 28.437 6.1769C28.8222 5.58037 29.3504 5.11433 30.0215 4.77878C30.705 4.44323 31.4818 4.27545 32.3517 4.27545C33.1844 4.27545 33.9425 4.42459 34.626 4.72285C35.3095 5.00869 35.8936 5.40638 36.3783 5.91592C36.8754 6.42546 37.2358 7.01578 37.4595 7.68688L35.6327 8.48847C35.3592 7.75523 34.9305 7.18977 34.3464 6.79208C33.7747 6.39439 33.1098 6.19554 32.3517 6.19554C31.8919 6.19554 31.488 6.27633 31.14 6.43789C30.792 6.58702 30.5186 6.81072 30.3198 7.10899C30.1334 7.39483 30.0402 7.73038 30.0402 8.11564C30.0402 8.56304 30.1831 8.96073 30.4689 9.30871C30.7548 9.65668 31.1897 9.91767 31.7738 10.0917L34.1972 10.856C35.3033 11.1915 36.136 11.6762 36.6952 12.31C37.2545 12.9314 37.5341 13.7081 37.5341 14.6402C37.5341 15.4108 37.3291 16.0943 36.9189 16.6908C36.5212 17.2873 35.9682 17.7596 35.2598 18.1076C34.5514 18.4431 33.7312 18.6109 32.7991 18.6109Z" fill="url(#paint13_linear_113_33)" fill-opacity="0.44" style="mix-blend-mode:plus-lighter"/>
<defs>
<linearGradient id="paint0_linear_113_33" x1="10.4502" y1="21.4514" x2="10.4502" y2="0" gradientUnits="userSpaceOnUse">
<stop stop-color="#000C2F" stop-opacity="0"/>
<stop offset="1" stop-color="#000C2F"/>
</linearGradient>
<linearGradient id="paint1_linear_113_33" x1="10.4502" y1="21.4514" x2="10.4502" y2="0" gradientUnits="userSpaceOnUse">
<stop stop-color="#000C2F" stop-opacity="0"/>
<stop offset="1" stop-color="#000C2F"/>
</linearGradient>
<linearGradient id="paint2_linear_113_33" x1="10.4502" y1="21.4514" x2="10.4502" y2="0" gradientUnits="userSpaceOnUse">
<stop stop-color="#000C2F" stop-opacity="0"/>
<stop offset="1" stop-color="#000C2F"/>
</linearGradient>
<linearGradient id="paint3_linear_113_33" x1="79.165" y1="18.3877" x2="79.165" y2="4.38769" gradientUnits="userSpaceOnUse">
<stop stop-color="#000C2F" stop-opacity="0"/>
<stop offset="1" stop-color="#000C2F"/>
</linearGradient>
<linearGradient id="paint4_linear_113_33" x1="79.1652" y1="18.3872" x2="79.1652" y2="4.38721" gradientUnits="userSpaceOnUse">
<stop stop-color="#000C2F" stop-opacity="0"/>
<stop offset="1" stop-color="#000C2F"/>
</linearGradient>
<linearGradient id="paint5_linear_113_33" x1="79.165" y1="18.3877" x2="79.165" y2="4.38769" gradientUnits="userSpaceOnUse">
<stop stop-color="#000C2F" stop-opacity="0"/>
<stop offset="1" stop-color="#000C2F"/>
</linearGradient>
<linearGradient id="paint6_linear_113_33" x1="79.1646" y1="18.3875" x2="79.1646" y2="4.38747" gradientUnits="userSpaceOnUse">
<stop stop-color="#000C2F" stop-opacity="0"/>
<stop offset="1" stop-color="#000C2F"/>
</linearGradient>
<linearGradient id="paint7_linear_113_33" x1="79.1647" y1="18.3877" x2="79.1647" y2="4.38769" gradientUnits="userSpaceOnUse">
<stop stop-color="#000C2F" stop-opacity="0"/>
<stop offset="1" stop-color="#000C2F"/>
</linearGradient>
<linearGradient id="paint8_linear_113_33" x1="79.1651" y1="18.3875" x2="79.1651" y2="4.38747" gradientUnits="userSpaceOnUse">
<stop stop-color="#000C2F" stop-opacity="0"/>
<stop offset="1" stop-color="#000C2F"/>
</linearGradient>
<linearGradient id="paint9_linear_113_33" x1="79.1648" y1="18.3872" x2="79.1648" y2="4.38721" gradientUnits="userSpaceOnUse">
<stop stop-color="#000C2F" stop-opacity="0"/>
<stop offset="1" stop-color="#000C2F"/>
</linearGradient>
<linearGradient id="paint10_linear_113_33" x1="79.1647" y1="18.3877" x2="79.1647" y2="4.38766" gradientUnits="userSpaceOnUse">
<stop stop-color="#000C2F" stop-opacity="0"/>
<stop offset="1" stop-color="#000C2F"/>
</linearGradient>
<linearGradient id="paint11_linear_113_33" x1="79.1648" y1="18.3877" x2="79.1648" y2="4.38769" gradientUnits="userSpaceOnUse">
<stop stop-color="#000C2F" stop-opacity="0"/>
<stop offset="1" stop-color="#000C2F"/>
</linearGradient>
<linearGradient id="paint12_linear_113_33" x1="79.1647" y1="18.3873" x2="79.1647" y2="4.3873" gradientUnits="userSpaceOnUse">
<stop stop-color="#000C2F" stop-opacity="0"/>
<stop offset="1" stop-color="#000C2F"/>
</linearGradient>
<linearGradient id="paint13_linear_113_33" x1="79.1649" y1="18.3872" x2="79.1649" y2="4.38721" gradientUnits="userSpaceOnUse">
<stop stop-color="#000C2F" stop-opacity="0"/>
<stop offset="1" stop-color="#000C2F"/>
</linearGradient>
</defs>
</svg>
